<svg width="20" height="20" viewBox="0 0 20 20" fill="none" xmlns="http://www.w3.org/2000/svg">
<path d="M12.4513 0.209697C12.6386 0.116051 12.8555 0.100612 13.0542 0.166775C13.2528 0.232938 13.4171 0.375287 13.5109 0.562533L15.8291 5.1989C17.2541 5.30843 18.1483 5.5886 18.7255 6.30164C19.1847 6.86934 19.3322 7.57501 19.2784 8.55136H0.0104619C-0.0432534 7.57501 0.105254 6.86934 0.563413 6.30164C1.14059 5.58754 2.03479 5.30843 3.45982 5.1989L5.77801 0.562533C5.87256 0.376774 6.0367 0.235914 6.23466 0.170652C6.43262 0.105389 6.64834 0.121012 6.83483 0.214118C7.02132 0.307223 7.16345 0.470263 7.23025 0.667708C7.29705 0.865153 7.28311 1.081 7.19145 1.2682L5.25876 5.1336C5.76642 5.13009 6.32323 5.12833 6.9292 5.12833H12.3597C12.9657 5.12763 13.5225 5.12938 14.0301 5.1336L12.0974 1.2682C12.0039 1.08077 11.9886 0.863839 12.055 0.665135C12.1213 0.466431 12.2639 0.30328 12.4513 0.209697Z" fill="white"/>
<path fill-rule="evenodd" clip-rule="evenodd" d="M0.749799 12.7717C0.555546 11.8947 0.376468 11.0144 0.212646 10.1312H19.0762C18.9124 11.0144 18.7333 11.8947 18.539 12.7717L18.0872 14.8782C17.5743 17.2722 17.3183 18.4687 16.4494 19.1712C15.5805 19.8737 14.3566 19.8737 11.9089 19.8737H7.37995C4.93222 19.8737 3.70835 19.8737 2.84048 19.1712C1.9705 18.4687 1.71351 17.2722 1.20164 14.8782L0.749799 12.7717ZM7.53793 11.7111C7.32843 11.7111 7.12751 11.7943 6.97937 11.9425C6.83123 12.0906 6.748 12.2915 6.748 12.501C6.748 12.7105 6.83123 12.9114 6.97937 13.0596C7.12751 13.2077 7.32843 13.2909 7.53793 13.2909H11.7509C11.9604 13.2909 12.1613 13.2077 12.3095 13.0596C12.4576 12.9114 12.5408 12.7105 12.5408 12.501C12.5408 12.2915 12.4576 12.0906 12.3095 11.9425C12.1613 11.7943 11.9604 11.7111 11.7509 11.7111H7.53793Z" fill="white"/>
</svg>
