<svg width="16" height="17" viewBox="0 0 16 17" fill="none" xmlns="http://www.w3.org/2000/svg">
<path opacity="0.5" fill-rule="evenodd" clip-rule="evenodd" d="M6.4 16.5H9.6C12.6168 16.5 14.1256 16.5 15.0624 15.5624C15.9992 14.6248 16 13.1168 16 10.1V9.7504C16 9.052 16 8.5272 15.9656 8.1H12.724C11.8464 8.1 11.0704 8.1 10.4456 8.016C9.768 7.9248 9.0904 7.716 8.5376 7.1632C7.984 6.6096 7.7752 5.932 7.684 5.2544C7.6 4.6296 7.6 3.8544 7.6 2.976L7.608 0.7088C7.608 0.642667 7.61333 0.5776 7.624 0.5136C7.2968 0.5 6.9088 0.5 6.424 0.5C3.3912 0.5 1.8744 0.5 0.9376 1.4376C-9.53674e-08 2.3744 0 3.8832 0 6.9V10.1C0 13.1168 -9.53674e-08 14.6256 0.9376 15.5624C1.8752 16.4992 3.3832 16.5 6.4 16.5Z" fill="black"/>
<path d="M5.6103 14.1376C5.49909 14.2419 5.35236 14.2999 5.1999 14.2999C5.04745 14.2999 4.90071 14.2419 4.7895 14.1376L3.1895 12.6376C3.07615 12.5281 3.01042 12.3784 3.00653 12.2209C3.00264 12.0633 3.06089 11.9106 3.1687 11.7956C3.27651 11.6806 3.42522 11.6127 3.5827 11.6065C3.74017 11.6003 3.89377 11.6563 4.0103 11.7624L4.5999 12.3144V9.7C4.5999 9.54087 4.66312 9.38826 4.77564 9.27574C4.88816 9.16322 5.04077 9.1 5.1999 9.1C5.35903 9.1 5.51164 9.16322 5.62417 9.27574C5.73669 9.38826 5.7999 9.54087 5.7999 9.7V12.3152L6.3895 11.7624C6.50603 11.6563 6.65963 11.6003 6.81711 11.6065C6.97459 11.6127 7.12329 11.6806 7.2311 11.7956C7.33891 11.9106 7.39717 12.0633 7.39327 12.2209C7.38938 12.3784 7.32366 12.5281 7.2103 12.6376L5.6103 14.1376ZM7.6079 0.708003L7.5999 2.976C7.5999 3.8536 7.5999 4.6288 7.6839 5.2544C7.7751 5.932 7.9839 6.6096 8.5375 7.1624C9.0895 7.7152 9.7679 7.9248 10.4455 8.016C11.0703 8.1 11.8463 8.1 12.7239 8.1H15.9655C15.9762 8.22374 15.9836 8.35707 15.9879 8.5H15.9999C15.9999 8.2856 15.9999 8.1784 15.9919 8.052C15.9311 7.29162 15.6664 6.56171 15.2255 5.9392C15.1503 5.8368 15.0991 5.776 14.9975 5.6536C14.3631 4.8952 13.5279 3.9496 12.7999 3.3C12.1519 2.7208 11.2631 2.088 10.4879 1.5712C9.8223 1.1264 9.4895 0.904003 9.0327 0.739203C8.89965 0.692207 8.76458 0.6511 8.6279 0.616003C8.3207 0.540003 8.0215 0.513604 7.5999 0.504004L7.6079 0.708003Z" fill="black"/>
</svg>
