<svg width="28" height="26" viewBox="0 0 28 26" fill="none" xmlns="http://www.w3.org/2000/svg">
<path d="M2.74372 26V7.36667L0 1.22778L2.53266 0L5.8392 7.29444H22.1608L25.4673 0L28 1.22778L25.2563 7.36667V26H2.74372ZM11.1859 15.8889H16.8141C17.2127 15.8889 17.5471 15.7502 17.8173 15.4729C18.0874 15.1956 18.222 14.8527 18.2211 14.4444C18.2202 14.0361 18.0851 13.6933 17.8159 13.416C17.5467 13.1387 17.2127 13 16.8141 13H11.1859C10.7873 13 10.4533 13.1387 10.1841 13.416C9.91491 13.6933 9.77983 14.0361 9.77889 14.4444C9.77796 14.8527 9.91303 15.196 10.1841 15.4743C10.4552 15.7526 10.7891 15.8908 11.1859 15.8889Z" fill="white"/>
</svg>
