<svg width="28" height="46" viewBox="0 0 28 46" fill="none" xmlns="http://www.w3.org/2000/svg">
<path d="M2.34672 0.551326C2.09892 0.219407 1.62897 0.151212 1.29705 0.399008C0.965135 0.646804 0.89694 1.11676 1.14474 1.44867L2.34672 0.551326ZM1.50341 7.23071L0.756633 7.30017L1.50341 7.23071ZM6.93647 17.3234L6.44023 17.8857L6.93647 17.3234ZM21.8857 24.2673L22.4675 24.7407L21.8857 24.2673ZM15.9104 20.0739L15.2348 19.7481L15.9104 20.0739ZM19.684 35.3235L20.2716 34.8575L19.684 35.3235ZM26.9856 45.1636C27.3986 45.1327 27.7085 44.7729 27.6776 44.3598L27.1748 37.6286C27.1439 37.2155 26.7841 36.9057 26.371 36.9365C25.9579 36.9674 25.6481 37.3272 25.6789 37.7403L26.1259 43.7236L20.1426 44.1706C19.7295 44.2015 19.4197 44.5613 19.4505 44.9744C19.4814 45.3875 19.8413 45.6973 20.2543 45.6664L26.9856 45.1636ZM1.14474 1.44867C1.19558 1.51678 1.27662 1.73537 1.28068 2.22438C1.28446 2.67963 1.22291 3.23392 1.13391 3.84304C1.05247 4.40044 0.928955 5.11723 0.852853 5.66319C0.773387 6.23328 0.712255 6.82303 0.756633 7.30017L2.25019 7.16125C2.22363 6.87577 2.25888 6.44141 2.33849 5.87028C2.42146 5.27503 2.51973 4.73351 2.61815 4.05991C2.70901 3.43805 2.78542 2.78864 2.78063 2.21193C2.77612 1.66898 2.70209 1.02733 2.34672 0.551326L1.14474 1.44867ZM0.756633 7.30017C1.13623 11.3813 3.46447 15.2598 6.44023 17.8857L7.43271 16.761C4.6836 14.3351 2.58764 10.7894 2.25019 7.16125L0.756633 7.30017ZM6.44023 17.8857C7.22446 18.5778 8.24996 19.6615 9.49179 20.8925C10.71 22.1 12.1021 23.4126 13.5439 24.4712C14.9726 25.5202 16.5272 26.3784 18.0696 26.5814C19.6807 26.7936 21.215 26.2798 22.4675 24.7407L21.304 23.7939C20.381 24.9282 19.3616 25.2386 18.2654 25.0943C17.1003 24.9409 15.7937 24.2621 14.4317 23.2621C13.0828 22.2718 11.7548 21.0236 10.5478 19.8271C9.36439 18.6541 8.25956 17.4907 7.43271 16.761L6.44023 17.8857ZM22.4675 24.7407C24.5744 22.1514 23.6027 19.2123 21.7176 17.7959C20.7754 17.0879 19.5569 16.7181 18.3356 16.9913C17.0963 17.2685 15.9931 18.1758 15.2348 19.7481L16.5859 20.3996C17.191 19.1449 17.9653 18.6112 18.663 18.4551C19.3789 18.295 20.157 18.4996 20.8166 18.9951C22.1352 19.9859 22.7878 21.9705 21.304 23.7939L22.4675 24.7407ZM15.2348 19.7481C13.7102 22.9095 13.7444 25.7819 14.6506 28.4513C15.5435 31.0813 17.2769 33.4952 19.0964 35.7895L20.2716 34.8575C18.46 32.573 16.8737 30.3336 16.071 27.9691C15.2817 25.644 15.2446 23.181 16.5859 20.3996L15.2348 19.7481ZM19.0964 35.7895C20.3569 37.379 21.3546 38.9308 22.49 40.5104C23.6097 42.068 24.8246 43.5929 26.4404 44.984L27.4191 43.8473C25.934 42.5687 24.7993 41.1531 23.708 39.6348C22.6324 38.1385 21.5576 36.479 20.2716 34.8575L19.0964 35.7895Z" fill="#151616" fill-opacity="0.8"/>
</svg>
