<svg width="14" height="14" viewBox="0 0 14 14" fill="none" xmlns="http://www.w3.org/2000/svg">
<path d="M10.6667 6.66667C11.1333 6.66667 11.58 6.75333 12 6.9V4L8 0H1.33333C0.593333 0 0 0.593333 0 1.33333V10.6667C0 11.0203 0.140476 11.3594 0.390524 11.6095C0.640573 11.8595 0.979711 12 1.33333 12H6.9C6.75333 11.58 6.66667 11.1333 6.66667 10.6667C6.66667 8.46 8.46 6.66667 10.6667 6.66667ZM7.33333 1L11 4.66667H7.33333V1ZM13.3333 10V11.3333H11.3333V13.3333H10V11.3333H8V10H10V8H11.3333V10H13.3333Z" fill="black" fill-opacity="0.6"/>
</svg>
