<svg width="36" height="38" viewBox="0 0 36 38" fill="none" xmlns="http://www.w3.org/2000/svg">
<path d="M19.7298 4.6743L18.85 3.64745V4.9996V24.751C18.85 24.9764 18.7605 25.1926 18.6011 25.352C18.4417 25.5114 18.2255 25.601 18 25.601C17.531 25.601 17.15 25.2201 17.15 24.751V5.0014V3.64977L16.2704 4.67601L13.2464 8.20401L13.2462 8.20423C13.1736 8.28909 13.0849 8.3588 12.9853 8.4094C12.8857 8.46 12.7772 8.49048 12.6658 8.49911L12.7044 8.99762L12.6658 8.49911C12.5544 8.50774 12.4424 8.49436 12.3362 8.45971C12.23 8.42506 12.1317 8.36984 12.0468 8.29719C11.962 8.22454 11.8922 8.13588 11.8416 8.03629C11.7911 7.9367 11.7606 7.82811 11.7519 7.71674C11.7433 7.60536 11.7567 7.49338 11.7913 7.38717C11.826 7.28107 11.8811 7.18281 11.9537 7.098C11.9537 7.09797 11.9537 7.09793 11.9538 7.0979C11.9538 7.09786 11.9538 7.09782 11.9539 7.09778L17.3537 0.798L17.354 0.797565C17.4338 0.704253 17.5329 0.629335 17.6444 0.577967C17.7559 0.526599 17.8773 0.5 18 0.5C18.1228 0.5 18.2441 0.526599 18.3557 0.577967C18.4672 0.629335 18.5662 0.704253 18.646 0.797565L18.6464 0.797999L24.0462 7.09778C24.193 7.26916 24.2656 7.4918 24.2482 7.71674C24.2307 7.94167 24.1246 8.15046 23.9533 8.29719C23.7819 8.44391 23.5592 8.51655 23.3343 8.49911C23.1094 8.48168 22.9006 8.3756 22.7539 8.20423L22.7538 8.2041L19.7298 4.6743Z" fill="#544837" stroke="#544837"/>
<path d="M1.93595 15.8865L1.93555 15.8869C1.25295 16.5687 0.883611 17.4765 0.69331 18.8909C0.501064 20.3197 0.5 22.1889 0.5 24.7491V26.5491C0.5 29.1103 0.501063 30.9799 0.693312 32.4092C0.883614 33.824 1.25297 34.7324 1.93575 35.4152L1.93595 35.4154C2.61771 36.0979 3.52631 36.4673 4.94149 36.6576C6.37102 36.8499 8.24066 36.8509 10.8 36.8509H25.2C27.7593 36.8509 29.629 36.8499 31.0585 36.6576C32.4737 36.4673 33.3823 36.0979 34.064 35.4154C34.7461 34.7326 35.1155 33.8236 35.306 32.4087C35.4985 30.9794 35.5 29.1102 35.5 26.5509V24.7509C35.5 22.1907 35.4989 20.3211 35.3067 18.8918C35.1164 17.4769 34.747 16.5687 34.0644 15.8869L34.064 15.8865C33.3823 15.204 32.4737 14.8346 31.0585 14.6442C29.629 14.452 27.7593 14.4509 25.2 14.4509C24.5578 14.4509 24.1138 14.4515 23.7723 14.4864C23.4392 14.5203 23.259 14.5827 23.1269 14.6709C22.9858 14.7654 22.8645 14.8867 22.77 15.0279L1.93595 15.8865ZM1.93595 15.8865C2.61771 15.204 3.52631 14.8346 4.94149 14.6442C6.37102 14.452 8.24066 14.4509 10.8 14.4509C11.4422 14.4509 11.8862 14.4515 12.2277 14.4864C12.5605 14.5203 12.7407 14.5826 12.8727 14.6707C13.0142 14.7653 13.1356 14.8868 13.2302 15.0282C13.3183 15.1602 13.3806 15.3404 13.4146 15.6732C13.4494 16.0148 13.45 16.4587 13.45 17.1009V24.7509C13.45 25.9577 13.9294 27.115 14.7827 27.9683C15.636 28.8216 16.7933 29.3009 18 29.3009C19.2067 29.3009 20.364 28.8216 21.2173 27.9683C22.0706 27.115 22.55 25.9577 22.55 24.7509V17.1009C22.55 16.4587 22.5506 16.0148 22.5854 15.6732M1.93595 15.8865L22.5854 15.6732M22.5854 15.6732C22.6194 15.3404 22.6816 15.1602 22.7698 15.0282L22.5854 15.6732Z" fill="#544837" stroke="#544837"/>
</svg>
